<svg width="502" height="144" viewBox="0 0 502 144" fill="none" xmlns="http://www.w3.org/2000/svg">
<path d="M95.5278 104.787C95.9262 104.436 96.498 104.353 96.9744 104.589L100.947 106.552C101.143 106.649 101.312 106.793 101.43 106.977C101.893 107.695 102.319 108.549 102.687 109.562C104.115 113.497 102.06 117.646 99.6733 120.792C98.8063 121.934 97.0466 120.704 97.2631 119.288C97.5168 117.629 97.3607 116.013 96.3143 114.907C93.2019 111.62 88.1013 112.702 86.0226 113.453C83.9436 114.205 75.9837 117.825 83.8316 123.678C88.007 126.792 85.0217 133.394 83.5413 135.677C81.324 139.096 78.1068 141.879 75.5452 143.755C74.4789 144.535 73.2034 143.308 73.7693 142.115C75.8149 137.804 77.8407 131.584 73.504 129.988C63.284 126.227 62.5563 121.987 61.8726 120.104C61.5178 119.127 61.6418 117.715 61.8438 116.584C61.9565 115.954 62.5528 115.544 63.1928 115.594C75.0924 116.53 86.765 112.509 95.5278 104.787Z" fill="#FFA237"/>
<path fill-rule="evenodd" clip-rule="evenodd" d="M132.795 114.178C134.062 114.178 135.204 114.48 136.222 115.083C137.239 115.679 138.013 116.518 138.544 117.6C139.081 118.675 139.349 119.89 139.349 121.245C139.349 122.37 139.177 123.383 138.834 124.285C138.491 125.18 137.973 125.96 137.28 126.625C138.122 127.203 138.9 127.625 139.611 127.893L139.077 129.151C138.091 128.797 137.108 128.238 136.128 127.473C135.111 128.039 133.987 128.322 132.757 128.322C131.515 128.322 130.388 128.023 129.377 127.427C128.366 126.83 127.586 125.991 127.036 124.909C126.493 123.828 126.222 122.61 126.222 121.255C126.222 119.906 126.496 118.678 127.046 117.572C127.595 116.466 128.375 115.623 129.387 115.045C130.404 114.467 131.54 114.178 132.795 114.178ZM132.804 115.735C131.45 115.735 130.326 116.198 129.433 117.124C128.541 118.044 128.094 119.421 128.094 121.255C128.094 123.032 128.535 124.396 129.415 125.347C130.301 126.298 131.431 126.774 132.804 126.774C133.453 126.774 134.065 126.653 134.639 126.41C134.071 126.044 133.472 125.783 132.842 125.627L133.282 124.313C134.33 124.605 135.195 125.04 135.875 125.618C136.943 124.648 137.476 123.191 137.476 121.245C137.476 120.139 137.286 119.172 136.905 118.346C136.531 117.519 135.978 116.879 135.248 116.425C134.524 115.965 133.709 115.735 132.804 115.735Z" fill="#FFA237"/>
<path d="M143.647 122.308C143.647 123.495 143.756 124.372 143.974 124.937C144.199 125.497 144.58 125.929 145.117 126.233C145.66 126.538 146.321 126.69 147.102 126.69C148.437 126.69 149.389 126.389 149.957 125.786C150.525 125.183 150.809 124.024 150.809 122.308V114.421H152.626V122.317C152.626 123.691 152.47 124.782 152.158 125.59C151.846 126.398 151.281 127.057 150.463 127.566C149.652 128.07 148.584 128.322 147.261 128.322C145.975 128.322 144.923 128.101 144.105 127.66C143.288 127.218 142.704 126.581 142.355 125.748C142.005 124.909 141.83 123.766 141.83 122.317V114.421H143.647V122.308Z" fill="#FFA237"/>
<path fill-rule="evenodd" clip-rule="evenodd" d="M186.193 114.178C187.46 114.178 188.602 114.48 189.62 115.083C190.637 115.685 191.411 116.528 191.942 117.609C192.479 118.684 192.747 119.906 192.747 121.273C192.747 122.659 192.466 123.899 191.904 124.993C191.343 126.087 190.547 126.917 189.517 127.482C188.487 128.042 187.376 128.322 186.184 128.322C184.891 128.322 183.737 128.011 182.719 127.389C181.702 126.768 180.931 125.919 180.406 124.844C179.882 123.769 179.62 122.631 179.62 121.432C179.62 119.163 180.232 117.389 181.455 116.108C182.679 114.822 184.258 114.178 186.193 114.178ZM186.202 115.735C184.916 115.735 183.808 116.177 182.878 117.059C181.954 117.935 181.493 119.402 181.493 121.46C181.493 123.107 181.936 124.406 182.822 125.357C183.715 126.302 184.832 126.774 186.174 126.774C187.541 126.774 188.665 126.295 189.545 125.338C190.431 124.381 190.874 123.023 190.874 121.264C190.874 120.151 190.684 119.182 190.303 118.355C189.929 117.522 189.376 116.879 188.646 116.425C187.922 115.965 187.107 115.735 186.202 115.735Z" fill="#FFA237"/>
<path d="M220.247 114.188C221.62 114.188 222.775 114.536 223.711 115.232C224.647 115.928 225.3 116.907 225.668 118.169L223.88 118.588C223.561 117.594 223.099 116.87 222.494 116.416C221.888 115.962 221.127 115.735 220.209 115.735C219.154 115.735 218.271 115.987 217.559 116.49C216.854 116.994 216.358 117.671 216.071 118.523C215.784 119.368 215.64 120.241 215.64 121.143C215.64 122.305 215.809 123.321 216.146 124.191C216.489 125.055 217.02 125.702 217.737 126.131C218.455 126.559 219.232 126.774 220.069 126.774C221.086 126.774 221.948 126.482 222.653 125.898C223.358 125.313 223.836 124.446 224.086 123.296L225.902 123.753C225.521 125.239 224.835 126.373 223.842 127.156C222.856 127.933 221.648 128.322 220.219 128.322C218.739 128.322 217.535 128.023 216.604 127.427C215.681 126.824 214.975 125.953 214.488 124.816C214.008 123.679 213.767 122.457 213.767 121.152C213.767 119.729 214.039 118.489 214.582 117.432C215.131 116.369 215.908 115.564 216.913 115.017C217.925 114.464 219.036 114.188 220.247 114.188Z" fill="#FFA237"/>
<path d="M165.622 116.034H157.513V120.22H165.107V121.823H157.513V126.476H165.94V128.088H155.697V114.421H165.622V116.034Z" fill="#FFA237"/>
<path d="M177.981 116.034L170.275 125.515L169.442 126.476H178.206V128.088H167.354V126.41L174.386 117.656C174.885 117.034 175.36 116.493 175.809 116.034H168.15V114.421H177.981V116.034Z" fill="#FFA237"/>
<path d="M204.151 125.152V114.421H205.893V128.088H204.03L196.82 117.348V128.088H195.079V114.421H196.942L204.151 125.152Z" fill="#FFA237"/>
<path d="M230.275 128.088H228.458V114.421H230.275V128.088Z" fill="#FFA237"/>
<path d="M243.336 116.034H238.795V128.088H236.979V116.034H232.456V114.421H243.336V116.034Z" fill="#FFA237"/>
<path d="M248.701 118.542C249.201 119.312 249.666 120.083 250.096 120.854C250.508 120.139 251.008 119.334 251.595 118.439L254.254 114.421H256.37L250.892 122.299V128.088H249.076V122.299L243.786 114.421H245.995L248.701 118.542Z" fill="#FFA237"/>
<path d="M25.5904 90.0777C26.1956 89.8599 26.8514 90.1724 27.1259 90.7529C31.8732 100.792 40.4456 109.034 51.7339 113.114C52.415 113.36 53.0987 113.587 53.7836 113.798C54.2237 113.933 54.5735 114.285 54.6349 114.74C54.8869 116.609 54.4524 119.062 52.0944 121.857C49.3917 125.06 44.7605 125.358 40.8359 124.868C39.4111 124.69 39.5987 122.556 40.9366 122.035C42.5041 121.425 43.8302 120.481 44.2668 119.024C45.5639 114.692 42.0739 110.827 40.3826 109.406C38.6908 107.986 31.5686 102.919 30.4116 112.626C29.7956 117.79 22.5709 118.512 19.8492 118.374C15.7739 118.168 11.7503 116.782 8.84121 115.507C7.63005 114.976 8.058 113.26 9.37648 113.152C14.1416 112.763 20.5519 111.402 19.7696 106.859C17.9245 96.1489 21.2412 93.4 22.5341 91.8678C23.2083 91.0688 24.5044 90.4686 25.5904 90.0777Z" fill="#FFA237"/>
<path d="M66.9693 34.4609C87.7063 34.4613 104.517 51.2318 104.517 71.9185C104.517 76.0769 103.838 80.0774 102.584 83.8149C102.352 84.5047 101.476 84.6889 100.965 84.1707C100.708 83.9107 100.615 83.5317 100.713 83.1801C101.393 80.7342 101.756 78.158 101.756 75.4986C101.756 59.5272 88.6532 46.5796 72.4905 46.5795C56.3278 46.5797 43.2254 59.5273 43.2251 75.4986C43.2252 91.47 56.3277 104.417 72.4905 104.418C78.6422 104.418 84.3511 102.542 89.0625 99.338C89.5317 99.0191 90.1653 99.0682 90.5637 99.4716C91.0285 99.9426 90.9978 100.709 90.4818 101.123C84.0468 106.286 75.8696 109.376 66.9693 109.376C46.232 109.376 29.4207 92.6054 29.4207 71.9185C29.4208 51.2316 46.2321 34.461 66.9693 34.4609Z" fill="#FFA237"/>
<path d="M95.786 74.7014C96.5604 74.0691 97.6912 74.9303 97.1765 75.7604L96.1847 77.3586C93.6319 81.4744 94.3885 86.674 98.0254 90.0117L113.631 104.333C114.42 105.056 113.399 106.214 112.481 105.637L94.3363 94.2382C90.102 91.5781 84.4698 91.9094 80.6302 95.0447L79.0088 96.3694C78.2344 97.0016 77.1038 96.1397 77.6184 95.3096L79.4754 92.3145C81.8799 88.4372 81.3606 83.5666 78.184 80.2037L75.7301 77.6056C75.0508 76.8857 75.9774 75.8352 76.8701 76.3136L80.1199 78.0555C84.2906 80.2916 89.5305 79.8089 93.1479 76.8551L95.786 74.7014Z" fill="#FFA237"/>
<path d="M219.772 57.6765C221.578 57.6765 223.453 57.9484 225.396 58.4915C227.374 59.0006 228.601 59.2552 229.079 59.2552C229.556 59.2551 229.982 58.9153 230.357 58.2367H230.919L231.277 68.5217H230.459C228.823 65.5687 227.101 63.2097 225.294 61.4446C223.522 59.6456 221.578 58.7456 219.465 58.7455C217.385 58.7455 215.766 59.2381 214.607 60.2225C213.448 61.1729 212.869 62.4625 212.869 64.0916C212.869 65.687 213.55 66.9267 214.914 67.8093C216.311 68.6579 218.016 69.3538 220.027 69.8969C222.039 70.4399 223.351 70.8128 223.965 71.0164C224.612 71.2201 225.397 71.5086 226.317 71.882C227.272 72.2214 228.039 72.595 228.618 73.0023C229.232 73.3757 229.863 73.8682 230.51 74.4792C231.192 75.0562 231.72 75.7011 232.095 76.4138C233.015 78.0431 233.476 79.978 233.476 82.2183C233.476 85.8843 232.317 88.8381 229.998 91.0784C227.714 93.2847 224.697 94.3874 220.947 94.3874C219.004 94.3874 216.771 94.1328 214.249 93.6237C211.761 93.1146 210.38 92.8601 210.107 92.8599C209.63 92.8599 209.169 93.3692 208.726 94.3874H208.011L207.499 82.2696H208.369C209.869 85.2226 211.778 87.8023 214.096 90.0086C216.448 92.2149 218.919 93.3183 221.51 93.3183C223.214 93.3183 224.714 92.8603 226.01 91.9439C227.339 91.0274 228.004 89.6522 228.004 87.8192C228.004 85.9523 227.289 84.5265 225.857 83.5422C224.459 82.5578 222.448 81.709 219.823 80.9962C217.232 80.2494 215.34 79.6047 214.147 79.0616C212.988 78.5185 211.879 77.806 210.823 76.9235C208.709 75.1583 207.652 72.4252 207.652 68.7253C207.653 65.7043 208.727 63.1074 210.874 60.9349C213.056 58.7626 216.022 57.6765 219.772 57.6765Z" fill="#FFA237"/>
<path fill-rule="evenodd" clip-rule="evenodd" d="M388.765 57.6765C394.288 57.6765 398.447 59.2716 401.242 62.4624C404.072 65.6192 405.486 70.1171 405.486 75.9554C405.486 81.7938 404.054 86.3255 401.191 89.5502C398.361 92.775 394.1 94.3874 388.407 94.3874C382.714 94.3874 378.452 92.8601 375.623 89.805C372.828 86.7161 371.43 82.2695 371.43 76.4651C371.43 70.6266 372.93 66.0438 375.93 62.7172C378.964 59.3567 383.242 57.6765 388.765 57.6765ZM388.509 58.7455C387.486 58.7456 386.6 58.8811 385.85 59.1527C385.134 59.4242 384.537 59.8995 384.06 60.5783C383.583 61.2572 383.191 61.9705 382.884 62.7172C382.611 63.464 382.39 64.5162 382.219 65.8739C382.015 67.8427 381.913 70.7453 381.913 74.581V78.2466C381.913 82.3879 382.066 85.3416 382.373 87.1068C382.714 88.8378 383.123 90.0769 383.6 90.8236C384.657 92.4867 386.293 93.3183 388.509 93.3183C391.202 93.3183 392.941 92.1984 393.725 89.9581C394.543 87.6838 394.952 83.7457 394.952 78.1448V74.3775C394.952 68.1656 394.645 64.2448 394.032 62.6155C393.35 60.7485 392.378 59.5939 391.117 59.1527C390.401 58.8812 389.532 58.7455 388.509 58.7455Z" fill="#FFA237"/>
<path d="M139.285 68.3182H138.365C136.933 64.8899 135.433 62.5476 133.865 61.2916C132.297 60.0017 129.995 59.357 126.961 59.357H125.172V75.0899H126.911C128.513 75.0899 129.859 74.4956 130.95 73.3076C132.041 72.0856 132.808 70.4565 133.251 68.4199H134.018V83.4917H133.149C132.535 80.9458 131.7 79.1293 130.644 78.043C129.621 76.9568 128.206 76.4138 126.399 76.4138H125.172V92.7582H127.115C130.251 92.7581 132.91 91.8249 135.092 89.9581C137.308 88.0911 138.825 85.6977 139.643 82.7785H140.666L140.257 93.8785H112.183V92.7582H115.201V59.357H112.183V58.2367H138.774L139.285 68.3182Z" fill="#FFA237"/>
<path d="M162.502 59.357H157.081V92.7582H158.923C161.82 92.7581 164.121 91.8755 165.826 90.1104C167.564 88.3453 169.32 85.63 171.092 81.9642H172.167L171.195 93.8785H144.093V92.7582H147.11V59.357H144.093V58.2367H162.502V59.357Z" fill="#FFA237"/>
<path d="M201.656 68.3182H200.736C199.304 64.8899 197.805 62.5476 196.236 61.2916C194.668 60.0017 192.367 59.357 189.333 59.357H187.543V75.0899H189.282C190.884 75.0899 192.231 74.4956 193.321 73.3076C194.412 72.0856 195.179 70.4565 195.622 68.4199H196.389V83.4917H195.52C194.907 80.9458 194.072 79.1293 193.015 78.043C191.992 76.9568 190.577 76.4138 188.77 76.4138H187.543V92.7582H189.486C192.622 92.7581 195.281 91.8249 197.463 89.9581C199.679 88.0911 201.196 85.6977 202.014 82.7785H203.037L202.628 93.8785H174.554V92.7582H177.572V59.357H174.554V58.2367H201.145L201.656 68.3182Z" fill="#FFA237"/>
<path d="M266.289 71.0164H265.317C263.817 66.5019 262.487 63.4298 261.328 61.8005C260.169 60.1374 258.499 59.3058 256.318 59.3057H255.703V92.8094H260.05V93.8785H241.386V92.8094H245.732V59.3057H245.068C242.886 59.3057 241.198 60.1712 240.005 61.9022C238.812 63.5994 237.5 66.6378 236.068 71.0164H235.096L235.608 58.2367H265.777L266.289 71.0164Z" fill="#FFA237"/>
<path d="M285.036 59.2039H282.223V92.9112H285.036V93.8785H269.439V92.9112H272.252V59.2039H269.439V58.2367H285.036V59.2039Z" fill="#FFA237"/>
<path fill-rule="evenodd" clip-rule="evenodd" d="M319.167 92.9112H321.52V93.8785H304.798V92.9112H308.429L304.695 81.9129H294.571L290.634 92.9112H294.469V93.8785H286.645V92.9112H289.048L302.088 57.9313H306.281L319.167 92.9112ZM295.031 80.7926H304.287L299.838 67.4527L295.031 80.7926Z" fill="#FFA237"/>
<path d="M348.06 59.2039H345.094V74.9881H355.27V59.2039H352.253V58.2367H368.258V59.2039H365.242V92.9112H368.258V93.8785H352.253V92.9112H355.27V76.312H345.094V92.9112H348.06V93.8785H332.105V92.9112H335.123V59.2039H332.105V58.2367H348.06V59.2039Z" fill="#FFA237"/>
<path d="M439.07 71.0164H438.099C436.599 66.5019 435.269 63.4298 434.11 61.8005C432.951 60.1374 431.281 59.3058 429.099 59.3057H428.485V92.8094H432.832V93.8785H414.167V92.8094H418.514V59.3057H417.849C415.668 59.3057 413.98 60.1712 412.787 61.9022C411.594 63.5994 410.281 66.6378 408.85 71.0164H407.878L408.389 58.2367H438.559L439.07 71.0164Z" fill="#FFA237"/>
<path d="M469.118 68.3182H468.198C466.766 64.8899 465.266 62.5476 463.698 61.2916C462.13 60.0017 459.829 59.357 456.795 59.357H455.005V75.0899H456.744C458.346 75.0899 459.693 74.4956 460.783 73.3076C461.874 72.0856 462.641 70.4565 463.084 68.4199H463.851V83.4917H462.982C462.368 80.9458 461.534 79.1293 460.477 78.043C459.454 76.9568 458.039 76.4138 456.232 76.4138H455.005V92.7582H456.948C460.084 92.7581 462.743 91.8249 464.925 89.9581C467.141 88.0911 468.658 85.6977 469.476 82.7785H470.499L470.09 93.8785H442.016V92.7582H445.034V59.357H442.016V58.2367H468.607L469.118 68.3182Z" fill="#FFA237"/>
<path d="M492.335 59.357H486.914V92.7582H488.756C491.653 92.7581 493.954 91.8755 495.659 90.1104C497.397 88.3453 499.153 85.63 500.926 81.9642H502L501.028 93.8785H473.926V92.7582H476.943V59.357H473.926V58.2367H492.335V59.357Z" fill="#FFA237"/>
<path d="M0.00862658 43.7515C-0.135658 42.4402 1.56735 41.9525 2.31977 43.0375C5.03955 46.9601 9.42728 51.8199 12.9813 48.8715C21.3565 41.9224 25.4014 43.4139 27.3779 43.7647C28.4653 43.9579 29.7064 44.8594 30.6028 45.6317C31.0865 46.0484 31.1392 46.7646 30.7744 47.2881C28.6529 50.3312 26.8885 53.697 25.5631 57.3471C22.6188 65.4551 22.2384 73.8664 24.0056 81.6985C24.1057 82.142 23.9777 82.6149 23.6194 82.8958C22.1249 84.067 19.7673 84.9431 16.1234 84.2966C11.9915 83.5633 9.41675 79.712 7.87993 76.0766C7.32206 74.7565 9.26886 73.8512 10.39 74.7465C11.7035 75.7955 13.1856 76.4693 14.669 76.1178C19.0784 75.0721 20.6885 70.125 21.0758 67.9538C21.4629 65.7824 22.3008 57.0954 13.2957 60.9489C8.50434 62.9991 4.26504 57.1188 3.02357 54.6985C1.16438 51.0736 0.356223 46.9025 0.00862658 43.7515Z" fill="#FFA237"/>
<path d="M81.3379 22.145C84.0403 18.9421 88.6704 18.643 92.5947 19.1328C94.0198 19.3107 93.8326 21.445 92.4949 21.9663C90.9278 22.5766 89.6019 23.5205 89.1655 24.9777C87.8686 29.31 91.3576 33.1753 93.0489 34.5953C94.7406 36.0157 101.863 41.0817 103.02 31.3757C103.636 26.2112 110.86 25.4896 113.582 25.6272C117.66 25.8335 121.686 27.2211 124.596 28.4964C125.806 29.0271 125.379 30.7414 124.061 30.849C119.295 31.2371 112.88 32.5971 113.663 37.1429C115.508 47.853 112.19 50.6017 110.897 52.1338C110.144 53.026 108.616 53.669 107.47 54.0505C106.873 54.2495 106.237 53.9414 105.965 53.3746C101.196 43.438 92.6684 35.2884 81.4651 31.2398C80.8833 31.0295 80.2996 30.8325 79.7149 30.6485C79.3084 30.5206 78.9783 30.2082 78.8894 29.7923C78.4783 27.8678 78.7495 25.2129 81.3379 22.145Z" fill="#FFA237"/>
<path d="M57.887 0.245532C58.9532 -0.535173 60.2278 0.691557 59.6621 1.88409C57.6164 6.19526 55.5911 12.4173 59.9282 14.0136C70.1484 17.7746 70.8759 22.0149 71.5596 23.8977C71.9567 24.9918 71.7521 26.6291 71.5112 27.8088C71.3847 28.4272 70.7951 28.8224 70.1645 28.7707C57.9705 27.7668 46.0014 31.9725 37.1445 40.0362C36.8209 40.3308 36.3686 40.4571 35.9562 40.3097C34.1285 39.6565 32.0646 38.0742 30.7448 34.4399C29.3159 30.5044 31.371 26.3553 33.7582 23.2101C34.6252 22.0678 36.3849 23.2978 36.1684 24.7143C35.9149 26.3729 36.0715 27.9893 37.118 29.0946C40.2305 32.3813 45.3311 31.2994 47.4097 30.5483C49.4888 29.7968 57.4479 26.1763 49.6006 20.3238C45.4248 17.2095 48.4098 10.6067 49.8901 8.32409C52.1077 4.90498 55.3252 2.12142 57.887 0.245532Z" fill="#FFA237"/>
</svg>
